# This file uses centimeters as units for non-parametric coordinates.

mtllib pasar 2.mtl
g default
v 3.058335 1.438882 -0.283655
v 3.057098 1.515686 -0.358466
v 3.145839 1.493680 -0.304132
v 2.493878 1.733961 -0.063852
v 2.553648 1.715358 -0.150118
v 2.553648 1.647694 -0.082454
v 3.145839 2.101945 -0.304132
v 3.058335 2.081467 -0.358930
v 3.058335 2.156742 -0.283655
v 2.553648 1.947930 -0.082454
v 2.559430 1.875890 -0.152288
v 2.493878 1.861664 -0.063852
v 3.145839 2.101945 0.304132
v 3.058335 2.156742 0.283655
v 3.058335 2.081467 0.358930
v 2.553648 1.880266 0.150118
v 2.559430 1.950100 0.078078
v 2.493878 1.861664 0.063852
v 3.145839 1.493680 0.304132
v 3.058335 1.514157 0.358930
v 3.058335 1.438882 0.283655
v 2.553648 1.647694 0.082454
v 2.559430 1.719734 0.152288
v 2.493878 1.733961 0.063852
v 3.058335 2.120011 -0.320387
v 2.556470 1.912777 -0.116530
v 3.058335 2.116619 0.323779
v 2.556348 1.912877 0.116477
v 3.057676 1.479751 -0.323463
v 2.553648 1.683699 -0.118460
v 3.058335 1.469293 0.314067
v 2.555984 1.676799 0.110667
v 1.784203 1.199284 -0.085739
v 1.784203 1.254018 -0.140473
v 1.838937 1.254018 -0.085739
v 1.619981 1.254018 -0.085739
v 1.674714 1.254018 -0.140473
v 1.674714 1.199284 -0.085739
v 1.838937 2.395878 -0.085739
v 1.784203 2.395878 -0.140473
v 1.784203 2.450611 -0.085739
v 1.674714 2.450611 -0.085739
v 1.674714 2.395878 -0.140473
v 1.619981 2.395878 -0.085739
v 1.838937 2.395878 0.085739
v 1.784203 2.450611 0.085739
v 1.784203 2.395878 0.140473
v 1.674714 2.395878 0.140473
v 1.674714 2.450611 0.085739
v 1.619981 2.395878 0.085739
v 1.838937 1.254018 0.085739
v 1.784203 1.254018 0.140473
v 1.784203 1.199284 0.085739
v 1.674714 1.199284 0.085739
v 1.674714 1.254018 0.140473
v 1.619981 1.254018 0.085739
v 1.638964 2.395878 0.104722
v 1.638964 1.254018 0.104722
v 1.649805 1.254018 -0.115563
v 1.649805 2.395878 -0.115563
v 1.815456 2.395878 0.109220
v 1.815456 1.254018 0.109220
v 1.813086 1.254018 -0.111589
v 1.813086 2.395878 -0.111589
v 2.422424 1.438882 -0.283655
v 2.421187 1.515686 -0.358466
v 2.509928 1.493680 -0.304132
v 1.857967 1.733961 -0.063852
v 1.917737 1.715358 -0.150118
v 1.917737 1.647694 -0.082454
v 2.509928 2.101945 -0.304132
v 2.422424 2.081467 -0.358930
v 2.422424 2.156742 -0.283655
v 1.917737 1.947930 -0.082454
v 1.923520 1.875890 -0.152288
v 1.857967 1.861664 -0.063852
v 2.509928 2.101945 0.304132
v 2.422424 2.156742 0.283655
v 2.422424 2.081467 0.358930
v 1.917737 1.880266 0.150118
v 1.923520 1.950100 0.078078
v 1.857967 1.861664 0.063852
v 2.509928 1.493680 0.304132
v 2.422424 1.514157 0.358930
v 2.422424 1.438882 0.283655
v 1.917737 1.647694 0.082454
v 1.923520 1.719734 0.152288
v 1.857967 1.733961 0.063852
v 2.422424 2.120011 -0.320387
v 1.920558 1.912777 -0.116530
v 2.422424 2.116619 0.323779
v 1.920437 1.912877 0.116477
v 2.421765 1.479751 -0.323463
v 1.917737 1.683699 -0.118460
v 2.422424 1.469293 0.314067
v 1.920073 1.676799 0.110667
vt 0.406085 0.955029
vt 0.385239 0.968588
vt 0.385239 0.774510
vt 0.406085 0.774018
vt 0.406524 0.024357
vt 0.410215 0.012961
vt 0.606299 0.011881
vt 0.603768 0.022328
vt 0.347039 0.027961
vt 0.406085 0.205029
vt 0.347039 0.222039
vt 0.625000 0.946807
vt 0.603768 0.933762
vt 0.603768 0.772328
vt 0.625000 0.825416
vt 0.687494 0.062494
vt 0.687494 0.187506
vt 0.601714 0.177353
vt 0.385239 0.274510
vt 0.406085 0.274018
vt 0.406085 0.455029
vt 0.385239 0.468588
vt 0.406085 0.240354
vt 0.602765 0.225984
vt 0.603768 0.272328
vt 0.625000 0.325416
vt 0.625000 0.446807
vt 0.601714 0.427353
vt 0.385239 0.524510
vt 0.406085 0.524018
vt 0.406085 0.705029
vt 0.385239 0.718588
vt 0.406085 0.491802
vt 0.602808 0.477978
vt 0.603768 0.522328
vt 0.625000 0.575416
vt 0.625000 0.696807
vt 0.601714 0.677353
vt 0.406085 0.746146
vt 0.602938 0.733958
vt 0.812506 0.062494
vt 0.812506 0.187506
vt 0.152961 0.027961
vt 0.152961 0.222039
vt 0.414413 0.000000
vt 0.609178 0.000000
vt 0.437494 0.951295
vt 0.375000 0.951295
vt 0.375000 0.798705
vt 0.437494 0.798705
vt 0.437494 0.010935
vt 0.437494 0.000000
vt 0.562506 0.000000
vt 0.562506 0.010935
vt 0.326295 0.010935
vt 0.378814 0.010935
vt 0.378814 0.239065
vt 0.326295 0.239065
vt 0.625000 0.951295
vt 0.562506 0.951295
vt 0.562506 0.798705
vt 0.625000 0.798705
vt 0.613113 0.010935
vt 0.613113 0.239065
vt 0.562506 0.239065
vt 0.375000 0.298705
vt 0.437494 0.298705
vt 0.437494 0.451295
vt 0.375000 0.451295
vt 0.437494 0.239065
vt 0.562506 0.298705
vt 0.625000 0.298705
vt 0.625000 0.451295
vt 0.562506 0.451295
vt 0.375000 0.510935
vt 0.401810 0.510935
vt 0.401810 0.739065
vt 0.375000 0.739065
vt 0.437494 0.510935
vt 0.562506 0.510935
vt 0.603325 0.510935
vt 0.603325 0.739065
vt 0.562506 0.739065
vt 0.437494 0.739065
vt 0.673705 0.010935
vt 0.826295 0.010935
vt 0.826295 0.239065
vt 0.673705 0.239065
vt 0.173705 0.010935
vt 0.173705 0.239065
vt 0.401810 0.476881
vt 0.603325 0.471980
vt 0.625000 0.739065
vt 0.625000 0.510935
vt 0.406085 0.955029
vt 0.385239 0.968588
vt 0.385239 0.774510
vt 0.406085 0.774018
vt 0.406524 0.024357
vt 0.410215 0.012961
vt 0.606299 0.011881
vt 0.603768 0.022328
vt 0.347039 0.027961
vt 0.406085 0.205029
vt 0.347039 0.222039
vt 0.625000 0.946807
vt 0.603768 0.933762
vt 0.603768 0.772328
vt 0.625000 0.825416
vt 0.687494 0.062494
vt 0.687494 0.187506
vt 0.601714 0.177353
vt 0.385239 0.274510
vt 0.406085 0.274018
vt 0.406085 0.455029
vt 0.385239 0.468588
vt 0.406085 0.240354
vt 0.602765 0.225984
vt 0.603768 0.272328
vt 0.625000 0.325416
vt 0.625000 0.446807
vt 0.601714 0.427353
vt 0.385239 0.524510
vt 0.406085 0.524018
vt 0.406085 0.705029
vt 0.385239 0.718588
vt 0.406085 0.491802
vt 0.602808 0.477978
vt 0.603768 0.522328
vt 0.625000 0.575416
vt 0.625000 0.696807
vt 0.601714 0.677353
vt 0.406085 0.746146
vt 0.602938 0.733958
vt 0.812506 0.062494
vt 0.812506 0.187506
vt 0.152961 0.027961
vt 0.152961 0.222039
vt 0.414413 0.000000
vt 0.609178 0.000000
vn 0.530748 -0.847530 0.000000
vn 0.530748 -0.847530 0.000000
vn 0.530748 -0.847530 0.000000
vn 0.530748 -0.847530 0.000000
vn -0.497439 -0.611296 -0.615526
vn -0.497668 -0.611204 -0.615431
vn -0.539560 -0.593499 -0.597189
vn -0.651115 -0.427639 -0.627036
vn 0.526441 -0.000891 -0.850211
vn 0.526441 -0.000891 -0.850211
vn 0.526441 -0.000891 -0.850211
vn 0.526441 -0.000891 -0.850211
vn -0.888855 -0.316077 -0.331711
vn -0.640285 -0.619818 -0.453719
vn -0.821984 -0.569511 -0.000000
vn -0.821984 -0.569511 -0.000000
vn -0.651115 -0.427639 -0.627036
vn -0.888855 -0.316077 -0.331711
vn -0.813745 0.073913 -0.576503
vn -0.637682 0.437646 -0.633899
vn 0.530748 0.847530 0.000000
vn 0.530748 0.847530 0.000000
vn 0.530748 0.847530 0.000000
vn 0.530748 0.847530 0.000000
vn -0.499436 0.597934 -0.626928
vn -0.501100 0.597225 -0.626276
vn -0.540874 0.576550 -0.612410
vn -0.530663 0.581937 -0.616235
vn -0.812359 0.583036 0.011908
vn -0.812359 0.583036 0.011908
vn -0.813746 0.576502 0.073914
vn -0.634345 0.634064 0.442233
vn 0.530748 0.000000 0.847530
vn 0.530748 0.000000 0.847530
vn 0.530748 0.000000 0.847530
vn 0.530748 0.000000 0.847530
vn -0.499370 0.626951 0.597965
vn -0.501101 0.626274 0.597226
vn -0.540909 0.612396 0.576532
vn -0.531842 0.615813 0.581308
vn -0.812358 -0.011906 0.583037
vn -0.812358 -0.011906 0.583037
vn -0.813745 -0.073914 0.576503
vn -0.625198 -0.454579 0.634417
vn -0.499164 -0.598050 0.627035
vn -0.501100 -0.597226 0.626275
vn -0.541011 -0.576477 0.612358
vn -0.536040 -0.579048 0.614300
vn -0.382529 0.000346 -0.923944
vn -0.382529 0.000346 -0.923944
vn -0.382529 0.000346 -0.923944
vn -0.382529 0.000346 -0.923944
vn -0.382490 0.923960 0.000284
vn -0.382490 0.923960 0.000284
vn -0.382490 0.923960 0.000284
vn -0.382490 0.923960 0.000284
vn -0.382490 -0.000284 0.923960
vn -0.382490 -0.000284 0.923960
vn -0.382490 -0.000284 0.923960
vn -0.382490 -0.000284 0.923960
vn -0.382314 -0.924032 -0.000000
vn -0.382314 -0.924032 -0.000000
vn -0.382314 -0.924032 -0.000000
vn -0.382314 -0.924032 -0.000000
vn -1.000000 0.000000 -0.000000
vn -1.000000 0.000000 -0.000000
vn -1.000000 0.000000 -0.000000
vn -1.000000 0.000000 -0.000000
vn 1.000000 0.000000 0.000000
vn 1.000000 0.000000 0.000000
vn 1.000000 0.000000 0.000000
vn 1.000000 0.000000 0.000000
vn 0.258348 -0.671923 -0.694101
vn 0.258348 -0.671923 -0.694101
vn 0.258348 -0.671923 -0.694101
vn 0.258348 -0.671923 -0.694101
vn -0.888855 -0.316077 -0.331711
vn -0.651115 -0.427639 -0.627036
vn -0.539560 -0.593499 -0.597189
vn -0.640285 -0.619818 -0.453719
vn 0.267251 0.681387 -0.681387
vn 0.267251 0.681387 -0.681387
vn 0.267251 0.681387 -0.681387
vn 0.267251 0.681387 -0.681387
vn -0.530663 0.581937 -0.616235
vn -0.540874 0.576550 -0.612410
vn -0.637682 0.437646 -0.633899
vn -0.813745 0.073913 -0.576503
vn 0.267252 0.681387 0.681387
vn 0.267252 0.681387 0.681387
vn 0.267252 0.681387 0.681387
vn 0.267252 0.681387 0.681387
vn -0.531842 0.615813 0.581308
vn -0.540909 0.612396 0.576532
vn -0.634345 0.634064 0.442233
vn -0.813746 0.576502 0.073914
vn 0.267250 -0.681387 0.681388
vn 0.267250 -0.681387 0.681388
vn 0.267250 -0.681387 0.681388
vn 0.267250 -0.681387 0.681388
vn -0.536040 -0.579048 0.614300
vn -0.541011 -0.576477 0.612358
vn -0.625198 -0.454579 0.634417
vn -0.813745 -0.073914 0.576503
vn -0.540874 0.576550 -0.612410
vn -0.501100 0.597225 -0.626276
vn -0.502698 0.596542 -0.625646
vn -0.637682 0.437646 -0.633899
vn -0.540909 0.612396 0.576532
vn -0.501101 0.626274 0.597226
vn -0.502630 0.625673 0.596571
vn -0.634345 0.634064 0.442233
vn -0.539560 -0.593499 -0.597189
vn -0.497668 -0.611204 -0.615431
vn -0.497866 -0.611125 -0.615350
vn -0.640285 -0.619818 -0.453719
vn -0.541011 -0.576477 0.612358
vn -0.501100 -0.597226 0.626275
vn -0.502424 -0.596660 0.625753
vn -0.625198 -0.454579 0.634417
vn 0.707109 -0.707104 0.000000
vn 0.707109 -0.707104 0.000000
vn 0.707109 -0.707104 0.000000
vn 0.707109 -0.707104 0.000000
vn 0.000000 -0.707108 -0.707106
vn 0.000000 -0.707108 -0.707106
vn 0.000000 -0.707108 -0.707106
vn 0.000000 -0.707108 -0.707106
vn 0.707109 0.000000 -0.707105
vn 0.707108 0.000000 -0.707105
vn 0.707108 0.000000 -0.707105
vn 0.707109 0.000000 -0.707105
vn -0.707107 -0.707106 -0.000000
vn -0.707107 -0.707106 -0.000000
vn -0.707107 -0.707106 -0.000000
vn -0.707107 -0.707106 -0.000000
vn -0.707110 0.000000 -0.707103
vn -0.707105 0.000000 -0.707108
vn -0.707105 0.000000 -0.707108
vn -0.707110 0.000000 -0.707103
vn 0.707108 0.707106 0.000000
vn 0.707108 0.707106 0.000000
vn 0.707108 0.707106 0.000000
vn 0.707108 0.707106 0.000000
vn 0.000000 0.707109 -0.707104
vn 0.000000 0.707109 -0.707104
vn 0.000000 0.707109 -0.707104
vn 0.000000 0.707109 -0.707104
vn -0.707106 0.707108 -0.000000
vn -0.707106 0.707108 -0.000000
vn -0.707106 0.707108 -0.000000
vn -0.707106 0.707108 -0.000000
vn 0.707111 0.000000 0.707103
vn 0.707108 0.000000 0.707105
vn 0.707108 0.000000 0.707105
vn 0.707111 0.000000 0.707103
vn -0.000000 0.707109 0.707104
vn -0.000000 0.707109 0.707104
vn -0.000000 0.707109 0.707104
vn -0.000000 0.707109 0.707104
vn -0.707109 0.000000 0.707105
vn -0.707105 0.000000 0.707108
vn -0.707105 0.000000 0.707108
vn -0.707109 0.000000 0.707105
vn -0.000000 -0.707108 0.707106
vn -0.000000 -0.707108 0.707106
vn -0.000000 -0.707108 0.707106
vn -0.000000 -0.707108 0.707106
vn 0.000000 0.000000 -1.000000
vn 0.000000 0.000000 -1.000000
vn 0.000000 0.000000 -1.000000
vn 0.000000 0.000000 -1.000000
vn 0.000000 1.000000 0.000000
vn 0.000000 1.000000 0.000000
vn 0.000000 1.000000 0.000000
vn 0.000000 1.000000 0.000000
vn -0.000000 0.000000 1.000000
vn -0.000000 0.000000 1.000000
vn -0.000000 0.000000 1.000000
vn -0.000000 0.000000 1.000000
vn 0.000000 -1.000000 0.000000
vn 0.000000 -1.000000 0.000000
vn 0.000000 -1.000000 0.000000
vn 0.000000 -1.000000 0.000000
vn -1.000000 0.000000 -0.000000
vn -1.000000 0.000000 -0.000000
vn -1.000000 0.000000 -0.000000
vn -1.000000 0.000000 -0.000000
vn 1.000000 0.000000 0.000000
vn 1.000000 0.000000 0.000000
vn 1.000000 0.000000 0.000000
vn 1.000000 0.000000 0.000000
vn 0.577353 -0.577347 -0.577350
vn 0.577353 -0.577348 -0.577350
vn 0.577353 -0.577347 -0.577350
vn 0.577353 -0.577347 -0.577350
vn -0.577351 -0.577346 -0.577354
vn -0.577351 -0.577346 -0.577354
vn -0.577351 -0.577346 -0.577354
vn -0.577351 -0.577346 -0.577354
vn 0.577352 0.577349 -0.577349
vn 0.577352 0.577349 -0.577349
vn 0.577352 0.577349 -0.577349
vn 0.577352 0.577349 -0.577349
vn -0.577348 0.577351 -0.577351
vn -0.577348 0.577351 -0.577351
vn -0.577348 0.577351 -0.577351
vn -0.577348 0.577351 -0.577351
vn 0.577355 0.577346 0.577350
vn 0.577355 0.577346 0.577350
vn 0.577355 0.577346 0.577350
vn 0.577355 0.577346 0.577350
vn -0.577350 0.577347 0.577353
vn -0.577350 0.577347 0.577353
vn -0.577350 0.577347 0.577353
vn -0.577350 0.577347 0.577353
vn 0.577355 -0.577344 0.577352
vn 0.577355 -0.577344 0.577352
vn 0.577355 -0.577344 0.577352
vn 0.577355 -0.577344 0.577352
vn -0.577350 -0.577348 0.577353
vn -0.577350 -0.577348 0.577353
vn -0.577350 -0.577347 0.577353
vn -0.577350 -0.577348 0.577353
vn -0.707105 0.000000 0.707108
vn -0.707105 0.000000 0.707108
vn -0.707099 0.000000 0.707114
vn -0.707099 0.000000 0.707114
vn -0.707105 0.000000 -0.707108
vn -0.707105 0.000000 -0.707108
vn -0.707101 0.000000 -0.707113
vn -0.707101 0.000000 -0.707113
vn 0.707108 0.000000 0.707105
vn 0.707108 0.000000 0.707105
vn 0.707106 0.000000 0.707107
vn 0.707106 0.000000 0.707107
vn 0.707108 0.000000 -0.707105
vn 0.707108 0.000000 -0.707105
vn 0.707108 0.000000 -0.707105
vn 0.707108 0.000000 -0.707105
vn 0.530746 -0.847531 0.000000
vn 0.530746 -0.847531 0.000000
vn 0.530746 -0.847531 0.000000
vn 0.530746 -0.847531 0.000000
vn -0.497441 -0.611293 -0.615527
vn -0.497669 -0.611202 -0.615432
vn -0.539560 -0.593498 -0.597190
vn -0.651116 -0.427637 -0.627037
vn 0.526441 -0.000891 -0.850211
vn 0.526441 -0.000891 -0.850211
vn 0.526441 -0.000891 -0.850211
vn 0.526441 -0.000891 -0.850211
vn -0.888854 -0.316078 -0.331712
vn -0.640285 -0.619819 -0.453718
vn -0.821982 -0.569513 -0.000000
vn -0.821982 -0.569513 -0.000000
vn -0.651116 -0.427637 -0.627037
vn -0.888854 -0.316078 -0.331712
vn -0.813745 0.073914 -0.576503
vn -0.637680 0.437646 -0.633900
vn 0.530747 0.847531 0.000000
vn 0.530747 0.847531 0.000000
vn 0.530747 0.847531 0.000000
vn 0.530747 0.847531 0.000000
vn -0.499437 0.597935 -0.626926
vn -0.501100 0.597225 -0.626275
vn -0.540875 0.576550 -0.612409
vn -0.530664 0.581938 -0.616233
vn -0.812357 0.583039 0.011908
vn -0.812357 0.583039 0.011908
vn -0.813744 0.576504 0.073914
vn -0.634344 0.634064 0.442233
vn 0.530748 0.000000 0.847530
vn 0.530748 0.000000 0.847530
vn 0.530748 0.000000 0.847530
vn 0.530748 0.000000 0.847530
vn -0.499369 0.626953 0.597964
vn -0.501101 0.626275 0.597226
vn -0.540904 0.612398 0.576534
vn -0.531841 0.615814 0.581308
vn -0.812358 -0.011908 0.583038
vn -0.812358 -0.011908 0.583038
vn -0.813745 -0.073915 0.576503
vn -0.625197 -0.454579 0.634418
vn -0.499163 -0.598051 0.627034
vn -0.501099 -0.597226 0.626275
vn -0.541010 -0.576477 0.612358
vn -0.536039 -0.579050 0.614299
vn -0.382529 0.000346 -0.923944
vn -0.382529 0.000346 -0.923944
vn -0.382529 0.000346 -0.923944
vn -0.382529 0.000346 -0.923944
vn -0.382491 0.923959 0.000284
vn -0.382491 0.923959 0.000284
vn -0.382491 0.923959 0.000284
vn -0.382491 0.923959 0.000284
vn -0.382490 -0.000284 0.923960
vn -0.382490 -0.000284 0.923960
vn -0.382490 -0.000284 0.923960
vn -0.382490 -0.000284 0.923960
vn -0.382315 -0.924032 -0.000000
vn -0.382315 -0.924032 -0.000000
vn -0.382315 -0.924032 -0.000000
vn -0.382315 -0.924032 -0.000000
vn -1.000000 0.000000 -0.000000
vn -1.000000 0.000000 -0.000000
vn -1.000000 0.000000 -0.000000
vn -1.000000 0.000000 -0.000000
vn 1.000000 0.000000 0.000000
vn 1.000000 0.000000 0.000000
vn 1.000000 0.000000 0.000000
vn 1.000000 0.000000 0.000000
vn 0.258348 -0.671921 -0.694102
vn 0.258348 -0.671921 -0.694102
vn 0.258348 -0.671921 -0.694102
vn 0.258348 -0.671921 -0.694102
vn -0.888854 -0.316078 -0.331712
vn -0.651116 -0.427637 -0.627037
vn -0.539560 -0.593498 -0.597190
vn -0.640285 -0.619819 -0.453718
vn 0.267251 0.681387 -0.681387
vn 0.267251 0.681387 -0.681387
vn 0.267251 0.681387 -0.681387
vn 0.267251 0.681387 -0.681387
vn -0.530664 0.581938 -0.616233
vn -0.540875 0.576550 -0.612409
vn -0.637680 0.437646 -0.633900
vn -0.813745 0.073914 -0.576503
vn 0.267252 0.681387 0.681387
vn 0.267252 0.681387 0.681387
vn 0.267252 0.681387 0.681387
vn 0.267252 0.681387 0.681387
vn -0.531841 0.615814 0.581308
vn -0.540904 0.612398 0.576534
vn -0.634344 0.634064 0.442233
vn -0.813744 0.576504 0.073914
vn 0.267250 -0.681384 0.681390
vn 0.267250 -0.681384 0.681390
vn 0.267250 -0.681384 0.681390
vn 0.267250 -0.681384 0.681390
vn -0.536039 -0.579050 0.614299
vn -0.541010 -0.576477 0.612358
vn -0.625197 -0.454579 0.634418
vn -0.813745 -0.073915 0.576503
vn -0.540875 0.576550 -0.612409
vn -0.501100 0.597225 -0.626275
vn -0.502698 0.596540 -0.625648
vn -0.637680 0.437646 -0.633900
vn -0.540904 0.612398 0.576534
vn -0.501101 0.626275 0.597226
vn -0.502630 0.625673 0.596571
vn -0.634344 0.634064 0.442233
vn -0.539560 -0.593498 -0.597190
vn -0.497669 -0.611202 -0.615432
vn -0.497866 -0.611124 -0.615351
vn -0.640285 -0.619819 -0.453718
vn -0.541010 -0.576477 0.612358
vn -0.501099 -0.597226 0.626275
vn -0.502424 -0.596659 0.625754
vn -0.625197 -0.454579 0.634418
s off
g pasar_2:pCube6
usemtl lambert2SG
f 1/1/1 3/2/2 19/3/3 21/4/4
f 2/5/5 29/6/6 30/7/7 5/8/8
f 3/9/9 2/5/10 8/10/11 7/11/12
f 4/12/13 6/13/14 22/14/15 24/15/16
f 5/8/17 4/16/18 12/17/19 11/18/20
f 7/19/21 9/20/22 14/21/23 13/22/24
f 9/20/25 25/23/26 26/24/27 10/25/28
f 10/25/29 12/26/30 18/27/31 17/28/32
f 13/29/33 15/30/34 20/31/35 19/32/36
f 15/30/37 27/33/38 28/34/39 16/35/40
f 16/35/41 18/36/42 24/37/43 23/38/44
f 21/4/45 31/39/46 32/40/47 22/14/48
f 2/5/49 5/8/50 11/18/51 8/10/52
f 9/20/53 10/25/54 17/28/55 14/21/56
f 15/30/57 16/35/58 23/38/59 20/31/60
f 21/4/61 22/14/62 6/13/63 1/1/64
f 4/16/65 24/41/66 18/42/67 12/17/68
f 19/43/69 3/9/70 7/11/71 13/44/72
f 1/45/73 29/6/74 2/5/75 3/9/76
f 4/16/77 5/8/78 30/7/79 6/46/80
f 7/11/81 8/10/82 25/23/83 9/20/84
f 10/25/85 26/24/86 11/18/87 12/17/88
f 13/22/89 14/21/90 27/33/91 15/30/92
f 16/35/93 28/34/94 17/28/95 18/27/96
f 19/32/97 20/31/98 31/39/99 21/4/100
f 22/14/101 32/40/102 23/38/103 24/37/104
f 26/24/105 25/23/106 8/10/107 11/18/108
f 28/34/109 27/33/110 14/21/111 17/28/112
f 30/7/113 29/6/114 1/45/115 6/46/116
f 32/40/117 31/39/118 20/31/119 23/38/120
f 33/47/121 35/48/122 51/49/123 53/50/124
f 34/51/125 33/52/126 38/53/127 37/54/128
f 35/55/129 63/56/130 64/57/131 39/58/132
f 36/59/133 38/60/134 54/61/135 56/62/136
f 37/54/137 59/63/138 60/64/139 43/65/140
f 39/66/141 41/67/142 46/68/143 45/69/144
f 41/67/145 40/70/146 43/65/147 42/71/148
f 42/71/149 44/72/150 50/73/151 49/74/152
f 45/75/153 61/76/154 62/77/155 51/78/156
f 47/79/157 46/68/158 49/74/159 48/80/160
f 48/80/161 57/81/162 58/82/163 55/83/164
f 53/50/165 52/84/166 55/83/167 54/61/168
f 34/51/169 37/54/170 43/65/171 40/70/172
f 41/67/173 42/71/174 49/74/175 46/68/176
f 47/79/177 48/80/178 55/83/179 52/84/180
f 53/50/181 54/61/182 38/60/183 33/47/184
f 36/85/185 56/86/186 50/87/187 44/88/188
f 51/89/189 35/55/190 39/58/191 45/90/192
f 33/52/193 34/51/194 63/56/195 35/55/196
f 36/85/197 59/63/198 37/54/199 38/53/200
f 39/58/201 64/57/202 40/70/203 41/67/204
f 42/71/205 43/65/206 60/64/207 44/88/208
f 45/69/209 46/68/210 47/79/211 61/91/212
f 48/80/213 49/74/214 50/73/215 57/92/216
f 51/78/217 62/77/218 52/84/219 53/50/220
f 54/61/221 55/83/222 58/82/223 56/93/224
f 58/82/225 57/81/226 50/94/227 56/93/228
f 60/64/229 59/63/230 36/85/231 44/88/232
f 62/77/233 61/76/234 47/79/235 52/84/236
f 64/57/237 63/56/238 34/51/239 40/70/240
f 65/95/241 67/96/242 83/97/243 85/98/244
f 66/99/245 93/100/246 94/101/247 69/102/248
f 67/103/249 66/99/250 72/104/251 71/105/252
f 68/106/253 70/107/254 86/108/255 88/109/256
f 69/102/257 68/110/258 76/111/259 75/112/260
f 71/113/261 73/114/262 78/115/263 77/116/264
f 73/114/265 89/117/266 90/118/267 74/119/268
f 74/119/269 76/120/270 82/121/271 81/122/272
f 77/123/273 79/124/274 84/125/275 83/126/276
f 79/124/277 91/127/278 92/128/279 80/129/280
f 80/129/281 82/130/282 88/131/283 87/132/284
f 85/98/285 95/133/286 96/134/287 86/108/288
f 66/99/289 69/102/290 75/112/291 72/104/292
f 73/114/293 74/119/294 81/122/295 78/115/296
f 79/124/297 80/129/298 87/132/299 84/125/300
f 85/98/301 86/108/302 70/107/303 65/95/304
f 68/110/305 88/135/306 82/136/307 76/111/308
f 83/137/309 67/103/310 71/105/311 77/138/312
f 65/139/313 93/100/314 66/99/315 67/103/316
f 68/110/317 69/102/318 94/101/319 70/140/320
f 71/105/321 72/104/322 89/117/323 73/114/324
f 74/119/325 90/118/326 75/112/327 76/111/328
f 77/116/329 78/115/330 91/127/331 79/124/332
f 80/129/333 92/128/334 81/122/335 82/121/336
f 83/126/337 84/125/338 95/133/339 85/98/340
f 86/108/341 96/134/342 87/132/343 88/131/344
f 90/118/345 89/117/346 72/104/347 75/112/348
f 92/128/349 91/127/350 78/115/351 81/122/352
f 94/101/353 93/100/354 65/139/355 70/140/356
f 96/134/357 95/133/358 84/125/359 87/132/360
